<?xml version="1.0" standalone="no"?>
<!DOCTYPE svg PUBLIC "-//W3C//DTD SVG 20010904//EN"
 "http://www.w3.org/TR/2001/REC-SVG-20010904/DTD/svg10.dtd">
<svg version="1.0" xmlns="http://www.w3.org/2000/svg"
 width="256.000000pt" height="256.000000pt" viewBox="0 0 256.000000 256.000000"
 preserveAspectRatio="xMidYMid meet">

<g transform="translate(0.000000,256.000000) scale(0.100000,-0.100000)"
fill="#000000" stroke="none">
<path d="M870 2533 c-191 -15 -465 -87 -598 -158 -218 -115 -298 -260 -228
-410 47 -102 203 -211 391 -274 288 -96 703 -123 1030 -66 156 27 205 44 272
92 54 39 74 47 127 52 71 8 142 47 200 111 246 273 -81 572 -705 644 -121 14
-365 19 -489 9z"/>
<path d="M2142 1897 c-4 -35 -51 -113 -91 -151 -38 -37 -40 -41 -25 -57 21
-24 43 -87 44 -126 0 -28 4 -34 33 -41 27 -7 33 -6 40 11 4 11 6 101 4 201 -1
100 -3 173 -5 163z"/>
<path d="M20 1710 c0 -175 2 -188 24 -235 13 -27 35 -62 48 -76 129 -145 435
-256 793 -289 186 -17 216 -15 275 22 41 26 63 32 105 32 l52 0 -18 41 c-39
85 -11 169 81 244 l55 44 -35 -6 c-19 -4 -98 -11 -174 -17 -388 -27 -808 58
-1030 209 -58 39 -130 117 -152 166 l-24 50 0 -185z"/>
<path d="M1670 1429 c-102 -77 -185 -144 -185 -149 0 -8 369 -290 379 -290 3
0 7 44 8 98 l3 97 45 -3 c110 -7 218 -62 308 -156 149 -154 181 -362 87 -553
-95 -193 -314 -309 -517 -275 -139 23 -286 122 -354 238 -81 138 -92 302 -28
443 13 29 24 55 24 56 0 1 -28 8 -62 14 -35 6 -75 14 -90 17 -24 5 -29 1 -42
-31 -23 -54 -46 -177 -46 -244 0 -91 26 -208 65 -289 118 -249 362 -394 639
-380 175 10 319 72 441 192 197 195 251 509 131 763 -70 147 -166 243 -310
313 -78 37 -202 70 -266 70 l-30 0 0 105 c0 58 -3 105 -7 104 -5 0 -91 -63
-193 -140z"/>
<path d="M20 1220 c0 -164 3 -190 21 -230 31 -68 64 -106 139 -159 161 -113
438 -193 743 -216 l87 -7 0 94 c0 80 13 167 36 245 6 20 2 21 -73 27 -494 38
-834 176 -928 378 l-25 53 0 -185z"/>
<path d="M21 725 c-1 -187 -1 -190 26 -244 40 -77 118 -143 248 -206 204 -100
410 -144 718 -152 108 -3 197 -3 197 1 0 3 -16 27 -36 53 -42 54 -104 176
-128 249 l-17 51 -92 7 c-471 35 -828 193 -904 399 -9 27 -12 -1 -12 -158z"/>
</g>
</svg>
